Coordinates
version=1
nRows=19
nColumns=24
inDegrees=yes

Units are S.I. units (second, meters, Newtons, ...)
Angles are in degrees.

endheader
time	pelvis_tilt	pelvis_list	pelvis_rotation	pelvis_tx	pelvis_ty	pelvis_tz	hip_flexion_r	hip_adduction_r	hip_rotation_r	knee_angle_r	ankle_angle_r	subtalar_angle_r	mtp_angle_r	hip_flexion_l	hip_adduction_l	hip_rotation_l	knee_angle_l	ankle_angle_l	subtalar_angle_l	mtp_angle_l	lumbar_extension	lumbar_bending	lumbar_rotation
      0.01000000	     65.15063843	    -14.74818986	      2.11867044	      0.51189905	      0.98406168	     -0.22349457	      3.56012098	     -5.81142666	    -14.10970047	    -65.19338403	     -9.34096282	      0.00000000	      0.00000000	     38.09827144	    -12.67776845	     14.30795232	    -40.36148210	     23.00906792	      0.00000000	      0.00000000	      0.00000000	      0.00000000	      0.00000000
      0.02000000	     62.87242256	    -15.20654050	      2.54220840	      0.53193202	      0.95979518	     -0.22287899	      4.19813414	     -6.65075649	    -14.74216066	    -64.71018185	    -11.74140381	      0.00000000	      0.00000000	     32.62254842	    -13.20398632	     13.56168317	    -32.71702788	      8.56683586	      0.00000000	      0.00000000	      0.00000000	      0.00000000	      0.00000000
      0.03000000	     61.55180483	    -15.27495955	      2.71412663	      0.54140564	      0.95025641	     -0.22325532	      4.56649811	     -7.39234303	    -15.26930887	    -64.24611671	    -13.90942049	      0.00000000	      0.00000000	     28.26166984	    -13.57899273	     12.78732363	    -25.63385303	     -5.03451414	      0.00000000	      0.00000000	      0.00000000	      0.00000000	      0.00000000
      0.04000000	     61.11636268	    -15.01228900	      2.69484759	      0.54259579	      0.95105811	     -0.22400597	      4.62026490	     -8.01733781	    -15.65490382	    -63.82596704	    -15.72908328	      0.00000000	      0.00000000	     25.10284141	    -13.78342492	     12.00411844	    -19.57950923	    -17.07300594	      0.00000000	      0.00000000	      0.00000000	      0.00000000	      0.00000000
      0.05000000	     61.26801681	    -14.58491802	      2.61265514	      0.54037755	      0.95459181	     -0.22433623	      4.37683014	     -8.52085710	    -15.88093431	    -63.47843918	    -17.09764699	      0.00000000	      0.00000000	     23.01060733	    -13.82870865	     11.24840637	    -15.01594319	    -26.80475471	      0.00000000	      0.00000000	      0.00000000	      0.00000000	      0.00000000
      0.06000000	     61.64588827	    -14.18497161	      2.58365141	      0.53879316	      0.95596834	     -0.22403429	      3.94299347	     -8.90357231	    -15.97110554	    -63.22536143	    -17.97484811	      0.00000000	      0.00000000	     21.71669542	    -13.76137225	     10.57886359	    -12.14225587	    -33.77099619	      0.00000000	      0.00000000	      0.00000000	      0.00000000	      0.00000000
      0.07000000	     62.01630333	    -13.92032261	      2.63947497	      0.53853592	      0.95550891	     -0.22361804	      3.47214010	     -9.16001353	    -15.98370040	    -63.07332104	    -18.39827138	      0.00000000	      0.00000000	     20.99157293	    -13.64831844	     10.06717130	    -10.80177529	    -37.94300693	      0.00000000	      0.00000000	      0.00000000	      0.00000000	      0.00000000
      0.08000000	     62.28827867	    -13.79897342	      2.74128708	      0.53857803	      0.95508393	     -0.22360835	      3.09371195	     -9.28891665	    -15.97864169	    -63.01119225	    -18.46878288	      0.00000000	      0.00000000	     20.68301572	    -13.55413290	      9.76993503	    -10.58720547	    -39.70226200	      0.00000000	      0.00000000	      0.00000000	      0.00000000	      0.00000000
      0.09000000	     62.44782444	    -13.78761024	      2.83392152	      0.53848814	      0.95517456	     -0.22394417	      2.87197499	     -9.30917311	    -15.98913923	    -63.01590343	    -18.31856854	      0.00000000	      0.00000000	     20.67781757	    -13.51436267	      9.70091431	    -11.01874330	    -39.70527088	      0.00000000	      0.00000000	      0.00000000	      0.00000000	      0.00000000
      0.10000000	     62.50877725	    -13.85504782	      2.88314474	      0.53855148	      0.95528003	     -0.22422649	      2.80677335	     -9.25727103	    -16.01837068	    -63.06247345	    -18.07678857	      0.00000000	      0.00000000	     20.87350556	    -13.52657068	      9.82223483	    -11.68474725	    -38.69957278	      0.00000000	      0.00000000	      0.00000000	      0.00000000	      0.00000000
      0.11000000	     62.49213040	    -13.97166007	      2.88499929	      0.53889489	      0.95510475	     -0.22428419	      2.85855624	     -9.17122883	    -16.05420873	    -63.12996635	    -17.84400050	      0.00000000	      0.00000000	     21.17255136	    -13.56839518	     10.05818907	    -12.31089390	    -37.35526024	      0.00000000	      0.00000000	      0.00000000	      0.00000000	      0.00000000
      0.12000000	     62.42142007	    -14.10191813	      2.85764590	      0.53929685	      0.95477365	     -0.22425129	      2.97634769	     -9.08009053	    -16.08372513	    -63.20126051	    -17.67988373	      0.00000000	      0.00000000	     21.48775450	    -13.62013026	     10.32177042	    -12.76533372	    -36.15526024	      0.00000000	      0.00000000	      0.00000000	      0.00000000	      0.00000000
      0.13000000	     62.32382563	    -14.21254194	      2.82493318	      0.53954547	      0.95448609	     -0.22427033	      3.11512436	     -9.00266099	    -16.09951651	    -63.26239361	    -17.60380085	      0.00000000	      0.00000000	     21.75287407	    -13.67208815	     10.54035468	    -13.02283407	    -35.35772654	      0.00000000	      0.00000000	      0.00000000	      0.00000000	      0.00000000
      0.14000000	     62.22850475	    -14.28506368	      2.80111338	      0.53962592	      0.95431690	     -0.22434193	      3.24131119	     -8.94838342	    -16.10027519	    -63.30488872	    -17.60460897	      0.00000000	      0.00000000	     21.93147435	    -13.71955785	     10.67121820	    -13.11620919	    -35.01938824	      0.00000000	      0.00000000	      0.00000000	      0.00000000	      0.00000000
      0.15000000	     62.15976617	    -14.31971037	      2.78636383	      0.53962023	      0.95425238	     -0.22438892	      3.33314861	     -8.91903639	    -16.08843234	    -63.32768671	    -17.65447176	      0.00000000	      0.00000000	     22.01693085	    -13.75807065	     10.70432710	    -13.09702892	    -35.05628151	      0.00000000	      0.00000000	      0.00000000	      0.00000000	      0.00000000
      0.16000000	     62.12979423	    -14.32820651	      2.77291461	      0.53958176	      0.95425860	     -0.22436548	      3.38117463	     -8.91144321	    -16.06748881	    -63.33578325	    -17.72202688	      0.00000000	      0.00000000	     22.02358171	    -13.78471560	     10.65520315	    -13.01361863	    -35.31693482	      0.00000000	      0.00000000	      0.00000000	      0.00000000	      0.00000000
      0.17000000	     62.13648211	    -14.32260500	      2.75330904	      0.53951751	      0.95429887	     -0.22430652	      3.38859159	     -8.91960156	    -16.04098807	    -63.33683962	    -17.78200542	      0.00000000	      0.00000000	     21.97525008	    -13.80090649	     10.55297630	    -12.90284431	    -35.64822197	      0.00000000	      0.00000000	      0.00000000	      0.00000000	      0.00000000
      0.18000000	     62.16731045	    -14.31032673	      2.72531347	      0.53942838	      0.95434455	     -0.22426377	      3.36933422	     -8.93722099	    -16.01196387	    -63.33773251	    -17.81997493	      0.00000000	      0.00000000	     21.89688530	    -13.81112422	     10.42851256	    -12.78891810	    -35.94158612	      0.00000000	      0.00000000	      0.00000000	      0.00000000	      0.00000000
      0.19000000	     62.20562939	    -14.29525106	      2.69195923	      0.53932884	      0.95439221	     -0.22424021	      3.34289176	     -8.95969835	    -15.98245835	    -63.34269594	    -17.83265627	      0.00000000	      0.00000000	     21.81055203	    -13.81852946	     10.30603238	    -12.68497264	    -36.15465581	      0.00000000	      0.00000000	      0.00000000	      0.00000000	      0.00000000
